<svg version="1.1" id="Layer_1" xmlns="http://www.w3.org/2000/svg" xmlns:xlink="http://www.w3.org/1999/xlink" x="0px" y="0px" width="100%" viewBox="0 0 736 965" enable-background="new 0 0 736 965" xml:space="preserve">
<path fill="#090909" opacity="1.000000" stroke="none" d="M100.864548,138.744141 
	C104.279541,137.834137 107.332779,136.449173 110.390686,136.438797 
	C117.478752,136.414688 122.327499,133.721207 126.548508,127.781189 
	C139.561630,109.468468 156.718567,96.206718 177.420868,87.226097 
	C191.110626,81.287514 203.341232,72.803352 213.421722,61.666615 
	C226.122131,47.635429 241.454727,40.453426 260.647491,40.980659 
	C278.965607,41.483871 297.315155,41.326263 315.639862,40.938965 
	C328.072449,40.676189 339.984070,37.282848 351.288910,32.212212 
	C373.727875,22.147526 395.013977,23.129446 417.397858,34.262547 
	C437.981171,44.500099 460.233215,51.366550 481.671936,59.914234 
	C485.741028,61.536594 490.200500,63.326351 493.179016,66.329201 
	C503.366791,76.600204 512.895264,87.521973 522.873474,98.006813 
	C524.801575,100.032837 527.436768,102.077759 530.062561,102.643463 
	C564.856201,110.139450 599.703857,117.385529 634.549438,124.639076 
	C636.652893,125.076942 638.900513,124.830734 640.998901,125.283478 
	C646.824280,126.540321 647.999451,130.191803 646.007019,135.698898 
	C640.096069,152.036438 634.687866,168.555862 629.083130,185.004166 
	C629.487366,185.602524 629.891602,186.200867 630.295837,186.799210 
	C638.065796,186.799210 645.837708,186.705170 653.604431,186.863937 
	C655.598755,186.904709 657.576721,187.742737 659.562195,188.214493 
	C658.894531,189.989044 658.487305,191.922379 657.517639,193.512802 
	C650.417847,205.158142 643.205261,216.734695 635.876099,228.578751 
	C648.885193,239.148636 661.746094,249.694199 674.719421,260.099701 
	C681.493042,265.532654 682.100159,268.710175 677.255310,276.105072 
	C662.209839,299.069733 647.169495,322.037750 632.134888,345.009552 
	C631.232178,346.388855 630.397217,347.812592 629.351379,349.506104 
	C638.600403,357.069275 647.667053,364.614227 656.896729,371.954224 
	C659.817383,374.276886 660.582336,376.134186 657.724548,379.122681 
	C635.281128,402.593231 613.064209,426.282501 590.445435,449.582001 
	C584.333618,455.877716 577.083923,461.068726 570.024475,467.048065 
	C576.734558,476.062927 583.641418,485.395020 590.608215,494.682190 
	C594.867188,500.359711 593.957886,504.299805 587.927063,508.169586 
	C572.802612,517.874451 557.768555,527.721558 542.788452,537.647705 
	C541.494812,538.504944 540.117676,540.339294 540.059875,541.771362 
	C539.778259,548.744385 539.932434,555.735046 539.932434,562.948059 
	C541.091187,563.216736 541.993347,563.525879 542.917969,563.624756 
	C551.810730,564.575562 556.119080,569.439148 558.131104,578.103394 
	C562.824585,598.314575 566.572510,618.970032 573.776001,638.300598 
	C579.251709,652.994873 589.572571,665.860168 597.525818,679.661316 
	C605.133057,692.862000 616.746094,702.583313 626.811829,713.601257 
	C660.202087,750.149841 679.777649,793.715515 693.033386,840.716064 
	C701.763489,871.669922 708.331726,903.043518 712.755676,934.882568 
	C713.587952,940.872498 713.236450,941.478943 706.954712,941.539001 
	C680.458618,941.792419 653.960999,942.073914 627.464233,942.049194 
	C513.470093,941.942688 399.476013,941.744080 285.481995,941.547729 
	C263.818420,941.510437 242.154984,941.256470 220.491791,941.289856 
	C216.796494,941.295593 215.224915,940.319153 214.750580,936.408386 
	C211.611404,910.526611 213.351181,884.825562 217.507034,859.247437 
	C228.802109,789.729126 257.140656,727.130127 295.432953,668.635559 
	C298.909241,663.325256 300.758606,658.399902 297.046387,652.210205 
	C293.824127,646.837524 291.611267,640.859436 288.963379,635.172668 
	C276.713135,639.389099 264.840607,644.159607 252.577438,647.492981 
	C241.562836,650.486877 230.154602,652.132629 218.843353,653.875732 
	C215.342819,654.415161 211.497742,653.720764 207.975815,652.890076 
	C202.345062,651.562073 198.348175,648.378784 196.479233,642.371338 
	C192.891693,630.839783 187.091797,620.443298 179.461029,610.985718 
	C177.545792,608.611938 176.628799,605.026611 176.285721,601.885315 
	C175.765717,597.124451 176.149841,592.264893 176.149841,587.775696 
	C170.208115,585.601257 164.457382,583.953125 159.118484,581.432739 
	C151.641281,577.902954 147.280228,572.412354 146.364243,563.372986 
	C145.240005,552.278809 140.775818,542.649048 128.559677,538.649597 
	C124.121040,537.196472 120.021484,534.102478 116.339104,531.064026 
	C107.218475,523.538452 108.307785,511.455811 118.356232,505.198700 
	C135.510147,494.517059 144.122131,474.688934 138.918350,457.822510 
	C138.781372,457.378510 138.467819,456.988983 137.990189,456.131805 
	C128.712570,460.637115 119.412994,464.941223 110.331650,469.664856 
	C106.569885,471.621490 104.550636,471.094208 102.352867,467.433533 
	C87.610275,442.877777 73.993858,417.795197 64.522942,390.637604 
	C63.391624,387.393616 61.511822,384.322968 59.541775,381.474304 
	C50.926311,369.016479 42.293678,356.565247 33.379662,344.321045 
	C27.680902,336.493256 24.726854,328.044220 24.801025,318.316101 
	C24.967474,296.484833 24.948511,274.650879 24.803661,252.819351 
	C24.757803,245.907669 27.242979,240.465836 31.788895,235.312897 
	C41.360626,224.463104 50.574074,213.290558 59.723919,202.078568 
	C63.417263,197.552841 65.081978,192.282990 63.986755,186.221024 
	C62.164688,176.136169 65.110497,167.927353 72.880287,160.758347 
	C81.570198,152.740372 89.374641,143.771957 100.864548,138.744141 M561.002747,466.331543 
	C560.998169,465.888794 560.993591,465.446045 561.730652,464.993286 
	C564.901001,463.342957 569.074951,462.436951 570.989685,459.855347 
	C573.425110,456.571838 575.967102,454.320435 579.257446,451.841248 
	C586.609558,446.301544 592.522278,438.863464 599.118469,432.296265 
	C600.148804,431.270477 601.689697,430.757477 603.105652,430.282288 
	C603.192383,430.330536 603.279175,430.378784 603.365906,430.427063 
	C603.246399,430.282806 603.126831,430.138550 603.081909,429.299896 
	C604.509705,427.036804 605.937561,424.773712 607.063904,422.988373 
	C608.573059,422.388763 610.327087,422.244751 611.083435,421.301086 
	C615.776184,415.446350 621.196045,410.379974 626.845520,405.476776 
	C629.249329,403.390442 630.969238,400.516174 633.512634,397.651794 
	C633.784241,397.057251 634.451294,396.263458 634.267395,395.898468 
	C632.024719,391.448029 633.462891,390.654205 637.882263,391.692383 
	C639.702881,392.120087 642.165833,391.585754 640.749084,388.364441 
	C640.702393,388.258453 642.211426,387.468262 642.713684,387.109314 
	C642.809998,387.074097 642.906311,387.038879 643.595581,386.935211 
	C643.673889,385.338165 643.752136,383.741119 643.887085,380.988556 
	C645.246704,380.092712 647.710144,378.469635 650.725525,376.482819 
	C650.542542,375.561249 650.212708,373.899780 649.882812,372.238281 
	C649.492432,372.249725 649.101990,372.261169 648.711609,372.272644 
	C648.275085,373.311157 647.838562,374.349701 646.908630,376.562134 
	C645.720703,373.766296 644.955139,372.048431 644.255981,370.303986 
	C641.623657,363.736145 638.973938,362.795807 633.008057,366.104919 
	C633.008057,366.104919 632.791443,366.247101 632.886902,365.533417 
	C632.778442,365.052063 632.554810,364.564880 632.578796,364.090271 
	C632.903198,357.672241 632.673889,357.694580 626.155212,356.852661 
	C623.953796,356.568359 621.960938,354.669525 619.978882,353.567566 
	C624.895630,346.245209 629.553589,340.018524 633.390198,333.321320 
	C635.605286,329.454926 640.277588,326.490570 639.000000,321.000000 
	C639.000000,321.000000 638.980713,320.976471 639.719543,320.926208 
	C643.169189,320.456024 644.690613,318.266174 645.597046,314.714386 
	C646.393799,313.478699 647.190613,312.243011 648.000000,310.999237 
	C648.000000,310.999237 648.005859,310.985382 648.340393,310.814850 
	C648.403381,310.707886 648.545166,310.544464 648.515869,310.503601 
	C648.377930,310.311157 648.193176,310.152283 648.393982,309.456818 
	C648.562134,307.933167 648.730286,306.409546 648.982727,304.966156 
	C648.982727,304.966156 648.872681,304.928223 649.378357,304.761810 
	C649.573486,304.475922 649.768555,304.190033 650.076904,303.439972 
	C650.229553,303.123413 650.480713,302.947266 651.303345,303.101379 
	C651.870056,303.072418 652.436707,303.043488 653.609863,302.697571 
	C655.122742,300.352631 656.769775,298.076233 658.032532,295.603546 
	C658.277832,295.123138 657.026306,293.878418 656.658691,292.385010 
	C658.423706,290.231689 660.188660,288.078369 662.344788,286.440582 
	C666.476990,286.056274 664.719360,283.758423 663.948975,281.214935 
	C664.301270,280.815582 664.653564,280.416260 665.058044,280.588013 
	C665.366699,280.907684 665.675354,281.227356 665.984070,281.547028 
	C666.167969,281.337067 666.351807,281.127106 666.535706,280.917145 
	C666.028015,280.612732 665.520386,280.308350 665.115967,279.387817 
	C665.738586,278.575806 666.361145,277.763794 667.019165,277.561707 
	C667.341675,278.046814 667.664185,278.531921 668.104614,279.295258 
	C668.195129,279.342682 668.285706,279.390106 668.376221,279.437500 
	C668.256531,279.287109 668.136902,279.136719 668.125366,278.289764 
	C670.818298,275.211761 673.511230,272.133789 676.596924,268.606812 
	C668.470825,261.976654 660.906189,255.804611 653.120972,249.452606 
	C651.784424,252.222748 650.926758,254.000198 649.433350,255.644806 
	C647.642578,254.093750 645.851746,252.542694 644.778381,251.091766 
	C646.268127,251.407700 647.757874,251.723618 649.858276,252.169052 
	C648.924438,250.561966 648.318054,249.818192 648.035522,248.966934 
	C647.521606,247.418686 647.711426,245.262863 646.706970,244.318176 
	C642.986877,240.819412 639.134888,237.353912 634.885864,234.553482 
	C630.315308,231.541122 628.560303,228.655807 632.466064,223.867813 
	C634.248779,221.682388 635.433533,219.009171 636.953247,216.449768 
	C636.503296,215.970184 635.719177,215.134430 635.922119,215.350723 
	C637.636963,213.232956 638.899841,211.715668 640.113220,210.159729 
	C640.894409,209.158051 641.605530,208.101562 642.343201,207.066223 
	C645.641846,202.436508 648.938782,197.805573 652.236328,193.175064 
	C651.953613,192.725906 651.670837,192.276764 651.388123,191.827606 
	C643.503174,191.827606 635.618164,191.827606 626.804871,191.827606 
	C625.688416,190.386108 623.604187,188.531601 620.686646,191.434433 
	C620.792786,189.955139 620.898926,188.475830 621.755615,186.982880 
	C623.066467,185.478195 625.036255,184.178696 625.579346,182.434921 
	C628.649109,172.576996 631.459778,162.634399 634.088867,152.649567 
	C634.343445,151.682693 632.752197,150.229782 631.963135,148.349533 
	C632.276428,147.555313 632.589722,146.761108 633.627686,145.922592 
	C634.799133,145.043610 636.429504,144.409912 637.055237,143.239243 
	C638.868286,139.847122 640.408630,136.286011 641.701233,132.664612 
	C641.889709,132.136581 640.258850,130.301910 639.269043,130.110535 
	C627.107178,127.759148 614.866333,125.806763 602.727173,123.349373 
	C579.716248,118.691124 556.746765,113.824432 533.789062,108.909012 
	C530.018250,108.101654 525.313293,107.675301 522.895935,105.234703 
	C513.654968,95.904808 505.329437,85.676544 496.338867,76.086746 
	C491.923706,71.377373 487.631714,66.470413 480.922577,64.374237 
	C468.351654,60.446617 455.809631,56.336246 443.531921,51.587349 
	C432.444397,47.298813 421.807770,41.858299 410.814453,37.307190 
	C404.044342,34.504440 397.119781,31.024530 390.014954,30.301418 
	C375.671326,28.841555 361.855408,32.239429 349.000000,39.000000 
	C349.000000,39.000000 349.001282,38.998058 348.220612,39.015171 
	C346.470856,39.516174 344.659149,39.864037 342.981506,40.543171 
	C332.543060,44.768784 321.695770,46.199871 310.476349,46.063313 
	C292.655884,45.846401 274.823425,46.318428 257.010254,45.897636 
	C244.279861,45.596909 234.249954,51.659775 224.167740,58.012321 
	C223.501465,58.432125 222.933334,59.144665 222.544006,59.845692 
	C219.044296,66.147461 212.378281,69.119164 207.534058,74.041267 
	C202.757523,78.894569 196.914047,82.697823 190.833206,87.521370 
	C190.220459,87.568436 188.045074,87.161743 186.475311,87.954407 
	C179.292847,91.581276 172.169037,95.354950 165.229630,99.426109 
	C151.060532,107.738739 138.384293,117.869698 129.696854,132.060287 
	C125.519096,138.884460 118.885513,141.918442 112.183891,141.557739 
	C102.995598,141.063217 97.164627,146.388229 91.054314,150.884201 
	C84.608620,155.626938 79.676720,162.372940 73.603607,167.696289 
	C69.927200,170.918823 69.165329,174.493317 68.858536,179.020920 
	C68.401100,185.771851 71.563797,192.786163 67.405800,199.302277 
	C65.433571,202.393005 64.206802,206.039917 61.904015,208.824295 
	C54.635269,217.613174 47.177303,226.259689 39.476585,234.672058 
	C34.644981,239.950134 29.869968,244.853104 29.935127,252.810913 
	C30.121967,275.629639 29.790012,298.454376 30.170044,321.268311 
	C30.253641,326.286896 30.692116,331.602386 34.642033,336.010681 
	C39.437798,341.362946 44.660065,346.886719 47.461384,353.311462 
	C50.087437,359.334259 54.520969,363.724548 57.646355,369.150146 
	C62.019707,376.742157 66.889542,384.088989 70.708595,391.948090 
	C74.568848,399.891998 77.332062,408.363708 80.724777,416.542450 
	C82.363693,420.493317 84.531799,424.227814 86.113258,428.198486 
	C87.488564,431.651611 89.379143,434.282745 93.182564,435.707916 
	C93.396049,436.471375 93.609535,437.234833 93.141174,438.142944 
	C91.030357,441.370697 93.470024,440.880127 95.833740,441.305817 
	C99.886162,448.868591 103.938576,456.431335 108.055237,464.114014 
	C110.107628,462.951935 111.675949,462.032288 113.272934,461.165497 
	C118.484200,458.336945 123.705948,455.527710 129.298401,453.329803 
	C131.143661,452.681793 132.962204,451.938019 134.841888,451.413361 
	C136.626480,450.915253 138.866882,449.843384 140.191589,450.489777 
	C141.687256,451.219543 142.442505,453.552643 143.394608,455.258331 
	C143.680954,455.771362 143.466721,456.538422 143.621323,457.154083 
	C146.677185,469.323029 145.736404,480.921509 138.606506,491.584595 
	C133.569962,499.117004 127.396240,505.523865 119.615685,510.294678 
	C115.617821,512.746094 113.814690,522.064270 116.999451,524.807922 
	C119.968704,527.365906 123.187401,529.706055 126.551620,531.714355 
	C130.219055,533.903687 134.458557,535.194336 137.959778,537.590942 
	C147.470596,544.101135 150.062881,554.317383 152.139206,564.885681 
	C152.753632,568.012939 154.289383,572.094482 156.707184,573.508362 
	C162.709137,577.018127 169.357605,579.543213 175.959198,581.856506 
	C179.336761,583.040100 181.044693,584.643127 181.011978,588.161072 
	C180.974792,592.159729 180.646698,596.202148 181.123322,600.143555 
	C181.477936,603.076172 182.218842,606.433472 183.986496,608.642212 
	C191.600967,618.156677 197.331650,628.543762 201.053391,640.159424 
	C201.846954,642.636108 203.791092,645.708191 205.978333,646.591553 
	C212.264053,649.130127 218.947998,650.066956 225.794540,648.248596 
	C233.748199,646.136292 241.800034,644.392761 249.749908,642.267151 
	C259.036102,639.784363 268.478943,637.654419 277.458313,634.309570 
	C292.283112,628.787292 302.365906,616.597839 313.890289,606.537964 
	C321.506714,599.889465 328.557861,592.596741 335.962982,585.700745 
	C337.809937,583.980652 340.046631,582.679077 342.982483,580.547485 
	C337.880951,598.355103 329.938599,613.700439 322.216217,629.102173 
	C317.337799,638.831787 311.710114,648.183167 306.553223,657.776672 
	C304.466827,661.658020 303.050385,665.919800 300.783051,669.679199 
	C296.180573,677.310425 290.855591,684.518616 286.466064,692.262634 
	C279.649109,704.289001 273.134003,716.501282 266.922394,728.851807 
	C261.256683,740.116882 255.793549,751.515198 250.927902,763.142212 
	C246.374512,774.023071 242.645447,785.253906 238.701736,796.383179 
	C236.222290,803.380188 233.756683,810.401428 231.757401,817.544067 
	C229.622284,825.171997 227.770386,832.903625 226.287720,840.683899 
	C224.279083,851.224304 222.542465,861.826599 221.063263,872.454407 
	C219.947067,880.474243 218.869965,888.568176 218.756439,896.642883 
	C218.589279,908.532349 219.276169,920.434753 219.643341,932.330261 
	C219.732864,935.230713 221.317047,936.044128 224.204529,936.071655 
	C245.158310,936.271606 266.110077,936.935303 287.062805,936.948425 
	C424.526306,937.034790 561.989929,936.993958 699.453491,936.993286 
	C707.153259,936.993225 708.271301,935.536377 706.769592,927.743835 
	C705.461670,920.956787 704.238281,914.153442 702.983582,907.356201 
	C700.975952,896.481018 699.442200,885.491150 696.839050,874.760620 
	C694.133484,863.607605 690.406921,852.701538 687.106873,841.693481 
	C683.488953,829.625061 680.249695,817.423950 676.119812,805.532715 
	C670.428284,789.144958 663.010132,773.446350 653.974609,758.642456 
	C644.810059,743.626953 634.343567,729.510071 622.219360,716.674744 
	C615.526978,709.589783 608.566650,702.678101 602.596924,695.011108 
	C595.510254,685.909607 589.475281,675.997009 582.772034,666.587280 
	C574.516418,654.998413 568.755371,642.228210 564.464539,628.763916 
	C561.808228,620.428345 559.181396,612.053162 557.195374,603.543091 
	C555.397705,595.839844 554.578491,587.912964 553.160034,580.115173 
	C551.737549,572.295593 549.198914,569.704590 541.526917,568.556213 
	C536.928955,567.867981 534.892822,565.642517 534.936523,560.942261 
	C534.987366,555.475891 534.392883,550.004395 534.418518,544.536682 
	C534.440125,539.918030 534.069153,535.132935 539.682190,532.602722 
	C542.133179,531.497925 543.920837,528.921631 546.615356,527.263245 
	C548.052307,526.673889 549.489197,526.084473 550.926147,525.495056 
	C550.667847,525.031494 550.409485,524.567993 550.151184,524.104431 
	C548.769897,524.400513 547.388611,524.696594 545.994690,524.449341 
	C545.983398,524.268372 545.972168,524.087463 546.258911,523.353271 
	C547.479065,522.548828 548.699280,521.744446 550.509155,521.214783 
	C551.323181,521.465576 552.137146,521.716431 553.361755,522.472839 
	C558.550964,521.417297 558.693909,521.278503 558.324402,517.494690 
	C558.883118,517.321350 559.441895,517.148010 560.448364,517.531555 
	C561.929138,517.207275 563.583618,517.195435 564.852295,516.489807 
	C567.091431,515.244446 569.037415,513.485229 571.208923,512.102600 
	C576.973022,508.432404 582.792114,504.848419 588.793091,501.102936 
	C586.995728,498.490356 585.568909,496.327118 583.987610,494.283325 
	C583.857849,494.115631 582.677246,494.761017 581.455200,494.644592 
	C580.966064,493.440887 580.476929,492.237183 579.992493,490.284637 
	C579.046204,486.158844 578.758728,485.923859 575.388123,486.754272 
	C574.567322,486.525787 573.746521,486.297302 572.994507,486.001221 
	C572.994507,486.001221 572.929871,486.067749 573.003601,485.305389 
	C572.994751,484.540283 572.985962,483.775177 573.480896,482.625336 
	C571.776001,478.804504 570.999023,474.261780 566.000000,473.000000 
	C566.000000,473.000000 565.995361,473.001556 565.792847,472.552338 
	C565.594421,472.273102 565.330872,472.085327 564.786743,471.475769 
	C564.522400,470.987091 564.258118,470.498444 563.934753,469.327637 
	C562.962219,468.550262 561.989685,467.772888 561.002747,466.331543 
M661.521729,289.621704 
	C661.466980,289.836304 661.412231,290.050873 661.357544,290.265503 
	C661.492188,290.127686 661.626831,289.989899 661.521729,289.621704 
M650.480591,379.597290 
	C650.480591,379.597290 650.405762,379.475006 650.480591,379.597290 
M651.515625,247.413361 
	C651.515625,247.413361 651.582397,247.525818 651.515625,247.413361 
M637.515503,362.412994 
	C637.515503,362.412994 637.582947,362.525879 637.515503,362.412994 
M648.590881,380.519501 
	C648.590881,380.519501 648.476318,380.589264 648.590881,380.519501 
M647.514771,382.404846 
	C647.514771,382.404846 647.584534,382.521240 647.514771,382.404846 
z"/>
<path fill="#131212" opacity="1.000000" stroke="none" 
	d="
M348.997833,39.001511 
	C361.855408,32.239429 375.671326,28.841555 390.014954,30.301418 
	C397.119781,31.024530 404.044342,34.504440 410.814453,37.307190 
	C421.807770,41.858299 432.444397,47.298813 443.531921,51.587349 
	C455.809631,56.336246 468.351654,60.446617 480.922577,64.374237 
	C487.631714,66.470413 491.923706,71.377373 496.338867,76.086746 
	C505.329437,85.676544 513.654968,95.904808 522.895935,105.234703 
	C525.313293,107.675301 530.018250,108.101654 533.789062,108.909012 
	C556.746765,113.824432 579.716248,118.691124 602.727173,123.349373 
	C614.866333,125.806763 627.107178,127.759148 639.269043,130.110535 
	C640.258850,130.301910 641.889709,132.136581 641.701233,132.664612 
	C640.408630,136.286011 638.868286,139.847122 637.055237,143.239243 
	C636.429504,144.409912 634.799133,145.043610 633.255554,145.537338 
	C633.344116,143.099243 633.804810,141.046417 634.340820,138.657791 
	C626.025879,137.147888 618.205750,135.614502 610.332520,134.436600 
	C609.308350,134.283386 607.447021,135.707367 606.937744,136.835938 
	C604.886902,141.380630 603.201050,146.090912 601.405151,150.749588 
	C596.575256,163.278656 591.758179,175.812653 586.533997,189.389359 
	C595.522766,192.066727 603.964539,194.581161 613.723083,197.487793 
	C600.940918,209.941208 588.848450,221.722733 576.437317,233.814651 
	C592.929749,246.766800 608.854004,259.272736 624.967896,271.927612 
	C605.787964,296.255341 586.897034,320.216461 567.984192,344.205383 
	C582.004333,355.204285 595.419800,365.728821 609.069763,376.437286 
	C586.176636,404.224854 559.958801,426.637146 527.602051,441.343048 
	C522.096802,443.845184 521.177917,446.162994 524.088745,451.396942 
	C525.140076,453.287384 526.301575,455.116516 527.410339,456.975037 
	C534.121826,468.224670 540.832581,479.474731 547.761353,491.089661 
	C527.980347,507.442627 506.172760,519.702881 483.703613,531.686096 
	C482.934387,529.723938 482.376770,528.373596 481.872375,527.003662 
	C477.811920,515.975403 477.309387,515.761658 466.598877,520.573608 
	C466.295715,520.709778 465.977814,520.813293 465.675354,520.950867 
	C460.961212,523.095337 456.248474,525.242859 452.241516,527.068054 
	C448.925995,508.162170 445.727905,489.925812 442.529785,471.689453 
	C441.906372,471.613159 441.282990,471.536896 440.659576,471.460602 
	C434.335510,477.742249 428.133789,484.154785 421.625641,490.239502 
	C419.116486,492.585419 418.525787,494.904846 419.054626,498.141968 
	C421.684631,514.239868 424.076385,530.376648 426.691223,546.477051 
	C428.794922,559.430481 429.782593,560.088684 442.706635,556.191467 
	C450.139832,553.949951 457.394562,551.116577 465.217163,548.379028 
	C468.304413,556.595581 471.377197,564.773560 474.685608,573.578735 
	C485.185059,566.242371 495.224274,559.186890 505.306519,552.193237 
	C517.591492,543.671570 529.912598,535.201965 542.689575,526.797729 
	C544.103699,526.919983 545.046265,526.954468 545.994019,526.994141 
	C545.999146,526.999268 546.009766,527.013672 546.009766,527.013672 
	C543.920837,528.921631 542.133179,531.497925 539.682190,532.602722 
	C534.069153,535.132935 534.440125,539.918030 534.418518,544.536682 
	C534.392883,550.004395 534.987366,555.475891 534.936523,560.942261 
	C534.892822,565.642517 536.928955,567.867981 541.526917,568.556213 
	C549.198914,569.704590 551.737549,572.295593 553.160034,580.115173 
	C554.578491,587.912964 555.397705,595.839844 557.195374,603.543091 
	C559.181396,612.053162 561.808228,620.428345 564.464539,628.763916 
	C568.755371,642.228210 574.516418,654.998413 582.772034,666.587280 
	C589.475281,675.997009 595.510254,685.909607 602.596924,695.011108 
	C608.566650,702.678101 615.526978,709.589783 622.219360,716.674744 
	C634.343567,729.510071 644.810059,743.626953 653.974609,758.642456 
	C663.010132,773.446350 670.428284,789.144958 676.119812,805.532715 
	C680.249695,817.423950 683.488953,829.625061 687.106873,841.693481 
	C690.406921,852.701538 694.133484,863.607605 696.839050,874.760620 
	C699.442200,885.491150 700.975952,896.481018 702.983582,907.356201 
	C704.238281,914.153442 705.461670,920.956787 706.769592,927.743835 
	C708.271301,935.536377 707.153259,936.993225 699.453491,936.993286 
	C561.989929,936.993958 424.526306,937.034790 287.062805,936.948425 
	C266.110077,936.935303 245.158310,936.271606 224.204529,936.071655 
	C221.317047,936.044128 219.732864,935.230713 219.643341,932.330261 
	C219.276169,920.434753 218.589279,908.532349 218.756439,896.642883 
	C218.869965,888.568176 219.947067,880.474243 221.063263,872.454407 
	C222.542465,861.826599 224.279083,851.224304 226.287720,840.683899 
	C227.770386,832.903625 229.622284,825.171997 231.757401,817.544067 
	C233.756683,810.401428 236.222290,803.380188 238.701736,796.383179 
	C242.645447,785.253906 246.374512,774.023071 250.927902,763.142212 
	C255.793549,751.515198 261.256683,740.116882 266.922394,728.851807 
	C273.134003,716.501282 279.649109,704.289001 286.466064,692.262634 
	C290.855591,684.518616 296.180573,677.310425 300.783051,669.679199 
	C303.050385,665.919800 304.466827,661.658020 306.553223,657.776672 
	C311.710114,648.183167 317.337799,638.831787 322.216217,629.102173 
	C329.938599,613.700439 337.880951,598.355103 342.982483,580.547485 
	C340.046631,582.679077 337.809937,583.980652 335.962982,585.700745 
	C328.557861,592.596741 321.506714,599.889465 313.890289,606.537964 
	C302.365906,616.597839 292.283112,628.787292 277.458313,634.309570 
	C268.478943,637.654419 259.036102,639.784363 249.749908,642.267151 
	C241.800034,644.392761 233.748199,646.136292 225.794540,648.248596 
	C218.947998,650.066956 212.264053,649.130127 205.978333,646.591553 
	C203.791092,645.708191 201.846954,642.636108 201.053391,640.159424 
	C197.331650,628.543762 191.600967,618.156677 183.986496,608.642212 
	C182.218842,606.433472 181.477936,603.076172 181.123322,600.143555 
	C180.646698,596.202148 180.974792,592.159729 181.011978,588.161072 
	C181.044693,584.643127 179.336761,583.040100 175.959198,581.856506 
	C169.357605,579.543213 162.709137,577.018127 156.707184,573.508362 
	C154.289383,572.094482 152.753632,568.012939 152.139206,564.885681 
	C150.062881,554.317383 147.470596,544.101135 137.959778,537.590942 
	C134.458557,535.194336 130.219055,533.903687 126.551620,531.714355 
	C123.187401,529.706055 119.968704,527.365906 116.999451,524.807922 
	C113.814690,522.064270 115.617821,512.746094 119.615685,510.294678 
	C127.396240,505.523865 133.569962,499.117004 138.606506,491.584595 
	C145.736404,480.921509 146.677185,469.323029 143.621323,457.154083 
	C143.466721,456.538422 143.680954,455.771362 143.394608,455.258331 
	C142.442505,453.552643 141.687256,451.219543 140.191589,450.489777 
	C138.866882,449.843384 136.626480,450.915253 134.841888,451.413361 
	C132.962204,451.938019 131.143661,452.681793 129.234711,452.704468 
	C137.581284,446.910461 145.991531,441.741760 154.587387,436.459015 
	C142.379547,416.114044 131.666153,395.590637 126.474358,372.833130 
	C121.228447,349.838470 123.365326,326.957245 129.773880,304.256683 
	C128.035446,305.515015 126.420601,306.763275 125.382217,308.381439 
	C118.216568,319.548279 111.165154,330.788452 104.090050,342.013306 
	C101.227539,346.554810 101.109131,351.389679 102.602768,356.396790 
	C105.881897,367.389435 108.933434,378.455444 112.473366,389.363190 
	C115.735420,399.414703 119.514343,409.298523 123.160973,419.523682 
	C112.922913,424.845490 103.055153,429.974823 93.187393,435.104187 
	C89.379143,434.282745 87.488564,431.651611 86.113258,428.198486 
	C84.531799,424.227814 82.363693,420.493317 80.724777,416.542450 
	C77.332062,408.363708 74.568848,399.891998 70.708595,391.948090 
	C66.889542,384.088989 62.019707,376.742157 57.646355,369.150146 
	C54.520969,363.724548 50.087437,359.334259 47.461384,353.311462 
	C44.660065,346.886719 39.437798,341.362946 34.642033,336.010681 
	C30.692116,331.602386 30.253641,326.286896 30.170044,321.268311 
	C29.790012,298.454376 30.121967,275.629639 29.935127,252.810913 
	C29.869968,244.853104 34.644981,239.950134 39.476585,234.672058 
	C47.177303,226.259689 54.635269,217.613174 61.904015,208.824295 
	C64.206802,206.039917 65.433571,202.393005 67.405800,199.302277 
	C71.563797,192.786163 68.401100,185.771851 68.858536,179.020920 
	C69.165329,174.493317 69.927200,170.918823 73.603607,167.696289 
	C79.676720,162.372940 84.608620,155.626938 91.054314,150.884201 
	C97.164627,146.388229 102.995598,141.063217 112.183891,141.557739 
	C118.885513,141.918442 125.519096,138.884460 129.696854,132.060287 
	C138.384293,117.869698 151.060532,107.738739 165.229630,99.426109 
	C172.169037,95.354950 179.292847,91.581276 186.475311,87.954407 
	C188.045074,87.161743 190.220459,87.568436 190.833206,87.521370 
	C196.914047,82.697823 202.757523,78.894569 207.534058,74.041267 
	C212.378281,69.119164 219.044296,66.147461 222.544006,59.845692 
	C222.933334,59.144665 223.501465,58.432125 224.167740,58.012321 
	C234.249954,51.659775 244.279861,45.596909 257.010254,45.897636 
	C274.823425,46.318428 292.655884,45.846401 310.476349,46.063313 
	C321.695770,46.199871 332.543060,44.768784 342.981506,40.543171 
	C344.659149,39.864037 346.470856,39.516174 348.663818,39.145508 
	C349.192108,39.325737 349.277161,39.375626 349.362244,39.425514 
	C349.240753,39.284180 349.119293,39.142849 348.997833,39.001511 
M455.867310,766.642334 
	C455.540466,767.067993 455.213654,767.493652 454.982178,767.982544 
	C454.982178,767.982544 454.918610,767.887329 454.296753,768.141968 
	C451.824066,771.066833 449.351410,773.991638 446.951691,776.975403 
	C446.951691,776.975403 446.938477,776.882629 446.429230,777.060730 
	C446.278442,777.374634 446.127655,777.688538 446.005402,778.001831 
	C446.005402,778.001831 445.996460,777.974792 445.429810,778.280090 
	C444.595123,779.507751 443.760437,780.735474 442.995239,781.991089 
	C442.995239,781.991089 442.956482,781.926941 442.392822,782.216431 
	C441.854523,783.106018 441.316223,783.995605 440.885437,784.902771 
	C440.885437,784.902771 440.828339,784.809998 440.228302,785.082947 
	C439.127686,786.709534 438.027039,788.336182 436.996002,789.990906 
	C436.996002,789.990906 436.956238,789.927246 436.378235,790.269165 
	C434.243317,793.510254 432.108429,796.751282 430.005737,799.996338 
	C430.005737,799.996338 429.988434,799.968567 429.442963,800.318970 
	C428.814697,801.429565 428.186432,802.540161 427.717163,803.897949 
	C427.717163,803.897949 427.613342,803.622986 427.064819,803.932434 
	C426.563110,804.839294 426.061371,805.746155 425.728027,807.010559 
	C425.728027,807.010559 425.543304,806.654907 425.015045,807.018860 
	C424.173401,808.529053 423.331757,810.039185 422.843201,811.724121 
	C422.843201,811.724121 422.470276,811.597046 421.969696,811.900513 
	C421.610107,812.584534 421.250519,813.268494 420.978180,813.973755 
	C420.978180,813.973755 420.926605,813.900208 420.374176,814.282715 
	C418.887695,816.839844 417.401215,819.396912 415.991302,821.987793 
	C415.991302,821.987793 415.946289,821.917175 415.386261,822.269958 
	C414.566498,823.833679 413.746735,825.397400 412.997955,826.989075 
	C412.997955,826.989075 412.953003,826.927429 412.388580,827.299927 
	C411.451935,829.092834 410.515320,830.885681 409.953430,833.022278 
	C409.831116,832.906067 409.708801,832.789856 409.044037,833.033752 
	C406.666687,837.337280 404.289307,841.640869 401.993378,845.991577 
	C401.993378,845.991577 401.936005,845.917053 401.370514,846.306824 
	C400.417969,848.083679 399.465424,849.860535 398.621857,851.434143 
	C410.500580,851.144165 421.749756,850.869507 433.661041,850.816101 
	C434.123505,850.787476 434.585938,850.758911 435.856201,850.964600 
	C444.220551,852.135742 452.584869,853.306824 461.609344,854.754822 
	C462.083221,854.777466 462.557098,854.800110 463.763855,855.109863 
	C467.156067,855.600098 470.548309,856.090332 474.574432,856.672119 
	C474.272003,854.511169 474.096802,853.259094 473.984863,851.334045 
	C473.892853,850.896545 473.800873,850.458984 473.810791,849.171875 
	C471.160278,819.160706 468.509766,789.149475 465.761749,758.033997 
	C463.805359,759.739624 462.731934,760.675415 461.814880,761.932312 
	C461.814880,761.932312 461.620880,761.632446 461.075226,761.795349 
	C460.581879,762.335327 460.088501,762.875305 459.605225,763.510742 
	C459.605225,763.510742 459.509796,763.521545 458.960297,763.655945 
	C458.602448,764.077332 458.244598,764.498718 457.981476,764.979858 
	C457.981476,764.979858 457.920135,764.886230 457.384338,765.063538 
	C457.084320,765.511902 456.784302,765.960266 456.499420,766.518127 
	C456.499420,766.518127 456.392517,766.490234 455.867310,766.642334 
M333.000000,443.000000 
	C333.000000,443.000000 333.043610,443.043854 333.807556,442.731934 
	C334.113037,441.632568 334.683929,440.533295 334.684235,439.433868 
	C334.688812,422.620178 334.618927,405.806488 334.813416,388.351074 
	C334.866302,388.192841 334.899078,388.023560 334.977905,387.879486 
	C335.053253,387.741760 335.176483,387.630188 335.278656,387.507080 
	C335.937897,388.495636 336.716827,389.425262 337.236847,390.482330 
	C340.508362,397.132599 343.722351,403.811218 347.120605,410.821320 
	C354.636047,405.213531 361.493896,399.944885 368.506653,394.891174 
	C392.924103,377.294769 415.413513,356.605103 445.426819,346.872894 
	C440.390228,338.417297 435.399078,330.037994 430.627380,322.027100 
	C446.704376,316.943054 462.671295,312.283051 478.336029,306.765167 
	C485.475769,304.250214 492.092499,300.177246 498.801514,296.543396 
	C502.220306,294.691589 502.470856,292.274414 499.846527,288.928711 
	C491.008301,277.660919 482.378235,266.224396 473.881348,254.695602 
	C461.911713,238.454819 449.185913,222.710648 439.576447,204.503525 
	C439.141785,207.370270 438.661591,210.419189 439.598511,212.941757 
	C443.585815,223.676987 447.147644,234.702988 452.470276,244.774338 
	C458.494812,256.173828 466.236481,266.665833 473.431458,277.863647 
	C471.809814,278.475952 469.740570,279.418274 467.580170,280.047913 
	C447.614929,285.866730 427.644836,291.669708 407.650696,297.388275 
	C401.791351,299.064117 401.024750,300.026398 403.403687,305.703156 
	C405.262787,310.139557 407.609985,314.385620 409.937988,318.607269 
	C412.225342,322.755310 414.761932,326.765930 417.256470,330.949768 
	C396.663971,343.171356 375.490692,353.475769 358.079773,370.329041 
	C345.076355,346.152466 332.252472,322.309692 319.428619,298.466949 
	C318.840240,298.599854 318.251862,298.732788 317.663483,298.865723 
	C317.663483,331.520264 317.663483,364.174805 317.663483,397.489349 
	C301.152985,390.702179 285.960846,383.840088 270.305908,378.281494 
	C262.468201,375.498596 259.157745,370.632782 258.020630,363.187897 
	C257.719086,361.213593 257.010925,359.238464 257.072876,357.282196 
	C257.387756,347.345184 253.118652,340.336975 245.853516,333.345978 
	C217.995438,306.539124 195.504379,275.288818 174.158676,243.205582 
	C171.623444,239.395035 169.091064,235.582596 165.853073,230.711563 
	C165.049332,234.140839 164.398911,236.327728 164.038284,238.561432 
	C162.791595,246.283478 161.374496,253.991684 160.511139,261.759491 
	C157.592987,288.014801 156.431442,314.258209 162.824326,340.236115 
	C163.791107,344.164764 162.553497,345.203827 158.742691,345.199158 
	C152.846603,345.191895 146.949905,345.693512 139.980972,346.031342 
	C145.182922,357.187042 149.850250,367.196259 154.724106,377.648376 
	C167.907043,373.122772 180.704727,368.729462 193.665009,364.280304 
	C185.186646,338.302948 178.435959,312.747864 182.389572,285.654480 
	C183.641632,287.299286 184.473938,289.049255 185.240234,290.827667 
	C194.976852,313.424072 205.990051,335.542877 223.241425,353.213867 
	C232.948257,363.156799 238.435684,373.540863 238.774872,387.058716 
	C238.795685,387.888336 239.047363,388.716797 239.028473,389.542084 
	C238.876373,396.185272 241.717392,400.357391 248.467911,401.834198 
	C251.025284,402.393677 253.491852,403.644623 255.825211,404.903931 
	C266.187225,410.496124 277.277618,415.148071 286.611206,422.135040 
	C298.830994,431.282623 312.041443,437.619934 326.912415,442.685730 
	C328.955505,442.805176 330.998566,442.924622 333.000000,443.000000 
M298.138611,865.276001 
	C298.233612,865.314392 298.328613,865.352783 298.423584,865.391174 
	C298.275970,865.267151 298.128357,865.143188 298.273041,864.169128 
	C297.778748,857.368164 296.345459,850.481140 296.960052,843.781860 
	C299.102478,820.427246 301.955444,797.137756 304.533691,773.823059 
	C305.061218,769.052490 305.568848,764.279724 306.085632,759.507935 
	C282.206879,783.036377 262.208344,808.846375 244.269409,836.582642 
	C262.523315,846.233459 280.263824,855.612793 298.138611,865.276001 
M606.005676,730.591736 
	C607.034546,734.789490 608.225403,738.955017 609.066406,743.190063 
	C615.444275,775.305786 617.284485,807.862488 618.277466,840.487427 
	C618.537415,849.028625 618.316650,857.584412 618.316650,867.387146 
	C637.732971,855.453918 654.725830,842.691467 675.379272,836.559326 
	C675.227234,835.834290 675.201294,835.159180 674.948303,834.583740 
	C665.916626,814.038757 657.351379,793.269531 647.661072,773.039246 
	C639.759216,756.542603 629.643677,741.271057 616.094543,728.691650 
	C612.324646,725.191589 607.730774,722.578979 603.514893,719.559204 
	C603.223022,719.887390 602.931091,720.215576 602.639160,720.543762 
	C603.703308,723.632874 604.767517,726.721985 606.005676,730.591736 
M426.724426,664.254761 
	C431.954590,657.516174 437.184753,650.777649 442.493225,643.938171 
	C424.265015,643.926697 363.486084,678.065125 352.894928,694.299561 
	C368.895569,697.807373 384.779572,701.368958 400.725342,704.628357 
	C401.946289,704.877991 404.202209,703.343384 404.965424,702.043945 
	C412.204926,689.717773 419.225220,677.262878 426.724426,664.254761 
M540.339905,605.840576 
	C533.240784,610.451355 526.141663,615.062134 519.042542,619.672852 
	C519.190735,620.360291 519.338928,621.047729 519.487183,621.735168 
	C533.619690,627.727722 547.752258,633.720276 561.447388,639.527344 
	C557.715454,626.229858 554.203369,613.715759 550.540588,600.664551 
	C547.717834,602.078674 544.343811,603.768860 540.339905,605.840576 
z"/>
<path fill="#ECAE15" opacity="1.000000" stroke="none" 
	d="
M542.218079,526.709839 
	C529.912598,535.201965 517.591492,543.671570 505.306519,552.193237 
	C495.224274,559.186890 485.185059,566.242371 474.685608,573.578735 
	C471.377197,564.773560 468.304413,556.595581 465.217163,548.379028 
	C457.394562,551.116577 450.139832,553.949951 442.706635,556.191467 
	C429.782593,560.088684 428.794922,559.430481 426.691223,546.477051 
	C424.076385,530.376648 421.684631,514.239868 419.054626,498.141968 
	C418.525787,494.904846 419.116486,492.585419 421.625641,490.239502 
	C428.133789,484.154785 434.335510,477.742249 440.659576,471.460602 
	C441.282990,471.536896 441.906372,471.613159 442.529785,471.689453 
	C445.727905,489.925812 448.925995,508.162170 452.241516,527.068054 
	C456.248474,525.242859 460.961212,523.095337 465.675354,520.950867 
	C465.977814,520.813293 466.295715,520.709778 466.598877,520.573608 
	C477.309387,515.761658 477.811920,515.975403 481.872375,527.003662 
	C482.376770,528.373596 482.934387,529.723938 483.703613,531.686096 
	C506.172760,519.702881 527.980347,507.442627 547.761353,491.089661 
	C540.832581,479.474731 534.121826,468.224670 527.410339,456.975037 
	C526.301575,455.116516 525.140076,453.287384 524.088745,451.396942 
	C521.177917,446.162994 522.096802,443.845184 527.602051,441.343048 
	C559.958801,426.637146 586.176636,404.224854 609.069763,376.437286 
	C595.419800,365.728821 582.004333,355.204285 567.984192,344.205383 
	C586.897034,320.216461 605.787964,296.255341 624.967896,271.927612 
	C608.854004,259.272736 592.929749,246.766800 576.437317,233.814651 
	C588.848450,221.722733 600.940918,209.941208 613.723083,197.487793 
	C603.964539,194.581161 595.522766,192.066727 586.533997,189.389359 
	C591.758179,175.812653 596.575256,163.278656 601.405151,150.749588 
	C603.201050,146.090912 604.886902,141.380630 606.937744,136.835938 
	C607.447021,135.707367 609.308350,134.283386 610.332520,134.436600 
	C618.205750,135.614502 626.025879,137.147888 634.340820,138.657791 
	C633.804810,141.046417 633.344116,143.099243 632.893188,145.559494 
	C632.589722,146.761108 632.276428,147.555313 631.771729,148.978119 
	C628.358093,160.945282 625.135986,172.283875 621.729980,183.789246 
	C621.355164,184.248840 621.296143,184.566132 621.203979,185.231781 
	C621.027588,186.035950 621.016357,186.516235 621.005066,186.996536 
	C620.898926,188.475830 620.792786,189.955139 620.839966,192.093964 
	C623.068054,193.824310 625.041199,195.452057 627.238281,195.853195 
	C632.237366,196.765915 637.346436,197.076385 643.172058,197.715073 
	C634.997742,209.549820 627.318237,220.668182 619.405396,232.124390 
	C627.497253,238.268295 635.143433,244.073776 642.902283,250.145569 
	C643.342896,250.588531 643.670898,250.765167 644.000732,250.971191 
	C644.002625,251.000595 644.060974,250.991638 644.060974,250.991638 
	C645.851746,252.542694 647.642578,254.093750 649.910889,256.011536 
	C656.793152,261.503723 663.197815,266.629181 669.596497,271.749847 
	C668.583923,273.765778 667.783813,275.358765 666.983643,276.951721 
	C666.361145,277.763794 665.738586,278.575806 665.057251,279.694397 
	C664.998474,280.000977 665.005859,280.016907 665.005859,280.016907 
	C664.653564,280.416260 664.301270,280.815582 663.638794,281.690430 
	C662.870300,283.418945 662.411987,284.671997 661.953613,285.925049 
	C660.188660,288.078369 658.423706,290.231689 656.361206,292.865234 
	C656.028748,293.521637 655.993713,293.697784 655.740112,293.973572 
	C655.250671,294.303497 655.148010,294.593353 654.959900,295.186890 
	C654.102295,296.888336 653.498230,298.345703 652.547485,299.881775 
	C651.743958,300.944183 651.287109,301.927826 650.830322,302.911499 
	C650.480713,302.947266 650.229553,303.123413 649.758484,303.749084 
	C649.250916,304.348206 649.061768,304.638214 648.872681,304.928223 
	C648.872681,304.928223 648.982727,304.966156 648.636108,305.075867 
	C645.186646,310.449219 642.083679,315.712860 638.980713,320.976471 
	C638.980713,320.976471 639.000000,321.000000 638.654053,321.074219 
	C631.126038,331.838409 623.943970,342.528351 616.420227,353.726807 
	C622.063660,358.042755 627.427551,362.144928 632.791443,366.247101 
	C632.791443,366.247101 633.008057,366.104919 633.062988,366.477783 
	C636.822815,369.868744 640.527649,372.886780 644.424683,376.061371 
	C642.989258,377.911713 641.910889,379.582153 640.563416,380.996124 
	C623.944763,398.435333 607.579346,416.130615 590.524658,433.133972 
	C580.930420,442.699249 570.181580,451.106415 559.698547,460.206879 
	C558.502502,461.887085 555.558594,463.119263 558.840759,465.176880 
	C558.903503,465.151245 558.770203,465.215515 558.824341,465.527466 
	C559.597107,466.867523 560.315796,467.895599 561.016785,468.952026 
	C560.999146,468.980408 561.065857,468.983276 561.103516,469.239136 
	C561.396729,469.710999 561.652222,469.927032 561.904541,470.120789 
	C561.901245,470.098541 561.874329,470.143158 561.945740,470.470734 
	C563.328918,472.564697 564.640686,474.331085 565.996948,476.320465 
	C566.165527,476.847198 566.385742,477.042694 566.775452,477.441101 
	C567.498474,478.568817 568.148193,479.385345 568.838135,480.093811 
	C568.878479,479.985718 568.767395,480.188080 568.832520,480.493347 
	C569.544250,481.591095 570.190796,482.383606 570.902039,483.096802 
	C570.966797,483.017487 570.811951,483.151520 570.870117,483.458374 
	C571.595520,484.532715 572.262695,485.300232 572.929871,486.067749 
	C572.929871,486.067749 572.994507,486.001221 573.005615,486.354187 
	C573.934509,487.875427 574.852356,489.043701 575.780762,490.220276 
	C575.791382,490.228638 575.772461,490.255066 575.865417,490.589111 
	C577.488281,493.197205 579.018250,495.471313 580.662720,497.915710 
	C578.218140,500.038239 576.027283,501.940460 573.924072,503.887451 
	C574.011780,503.932251 573.852295,503.816406 573.548767,503.885437 
	C572.470764,504.618011 571.696228,505.281525 570.957275,505.968994 
	C570.992859,505.992981 570.950562,505.918335 570.634583,505.988373 
	C569.166321,506.995728 568.014099,507.933075 566.935547,508.915100 
	C567.009155,508.959778 566.877319,508.848419 566.541809,508.923767 
	C561.762756,512.287231 557.319153,515.575378 552.896851,518.871582 
	C552.918091,518.879700 552.885315,518.860474 552.583496,518.931152 
	C551.494263,519.647888 550.706848,520.293945 549.919434,520.940002 
	C548.699280,521.744446 547.479065,522.548828 545.858765,523.668396 
	C545.239075,524.228271 545.019409,524.472961 544.815369,524.729919 
	C544.830933,524.742126 544.798401,524.749756 544.569458,524.800659 
	C544.340454,524.851562 544.033386,525.206299 543.726868,525.269531 
	C543.019592,525.791748 542.618835,526.250793 542.218079,526.709839 
z"/>
<path fill="#EAAD17" opacity="1.000000" stroke="none" 
	d="
M93.184982,435.406067 
	C103.055153,429.974823 112.922913,424.845490 123.160973,419.523682 
	C119.514343,409.298523 115.735420,399.414703 112.473366,389.363190 
	C108.933434,378.455444 105.881897,367.389435 102.602768,356.396790 
	C101.109131,351.389679 101.227539,346.554810 104.090050,342.013306 
	C111.165154,330.788452 118.216568,319.548279 125.382217,308.381439 
	C126.420601,306.763275 128.035446,305.515015 129.773880,304.256683 
	C123.365326,326.957245 121.228447,349.838470 126.474358,372.833130 
	C131.666153,395.590637 142.379547,416.114044 154.587387,436.459015 
	C145.991531,441.741760 137.581284,446.910461 129.047348,452.395081 
	C123.705948,455.527710 118.484200,458.336945 113.272934,461.165497 
	C111.675949,462.032288 110.107628,462.951935 108.055237,464.114014 
	C103.938576,456.431335 99.886162,448.868591 95.518356,440.757172 
	C94.742996,439.471771 94.283005,438.735046 93.823021,437.998291 
	C93.609535,437.234833 93.396049,436.471375 93.184982,435.406067 
z"/>
<path fill="#19130E" opacity="1.000000" stroke="none" 
	d="
M559.952942,460.035309 
	C570.181580,451.106415 580.930420,442.699249 590.524658,433.133972 
	C607.579346,416.130615 623.944763,398.435333 640.563416,380.996124 
	C641.910889,379.582153 642.989258,377.911713 644.424683,376.061371 
	C640.527649,372.886780 636.822815,369.868744 632.964050,366.561584 
	C638.973938,362.795807 641.623657,363.736145 644.255981,370.303986 
	C644.955139,372.048431 645.720703,373.766296 646.908630,376.562134 
	C647.838562,374.349701 648.275085,373.311157 648.711609,372.272644 
	C649.101990,372.261169 649.492432,372.249725 649.882812,372.238281 
	C650.212708,373.899780 650.542542,375.561249 650.725525,376.482819 
	C647.710144,378.469635 645.246704,380.092712 643.887085,380.988556 
	C643.752136,383.741119 643.673889,385.338165 643.297791,386.967590 
	C643.000000,387.000000 642.995300,386.997040 642.995300,386.997009 
	C642.211426,387.468262 640.702393,388.258453 640.749084,388.364441 
	C642.165833,391.585754 639.702881,392.120087 637.882263,391.692383 
	C633.462891,390.654205 632.024719,391.448029 634.267395,395.898468 
	C634.451294,396.263458 633.784241,397.057251 633.202148,397.687042 
	C632.805664,397.672882 632.719788,397.623505 632.633850,397.574097 
	C632.755920,397.716064 632.877930,397.858032 633.000000,398.000000 
	C630.969238,400.516174 629.249329,403.390442 626.845520,405.476776 
	C621.196045,410.379974 615.776184,415.446350 611.083435,421.301086 
	C610.327087,422.244751 608.573059,422.388763 607.063904,422.988373 
	C605.937561,424.773712 604.509705,427.036804 603.040955,429.649963 
	C603.000000,430.000000 602.994446,430.007324 602.994446,430.007324 
	C601.689697,430.757477 600.148804,431.270477 599.118469,432.296265 
	C592.522278,438.863464 586.609558,446.301544 579.257446,451.841248 
	C575.967102,454.320435 573.425110,456.571838 570.989685,459.855347 
	C569.074951,462.436951 564.901001,463.342957 560.988159,465.008270 
	C559.753906,465.087341 559.262024,465.151459 558.770203,465.215515 
	C558.770203,465.215515 558.903503,465.151245 558.908325,464.791473 
	C559.259766,462.966248 559.606384,461.500763 559.952942,460.035309 
z"/>
<path fill="#131212" opacity="1.000000" stroke="none" 
	d="
M642.789612,249.879257 
	C635.143433,244.073776 627.497253,238.268295 619.405396,232.124390 
	C627.318237,220.668182 634.997742,209.549820 643.172058,197.715073 
	C637.346436,197.076385 632.237366,196.765915 627.238281,195.853195 
	C625.041199,195.452057 623.068054,193.824310 621.000427,192.378845 
	C623.604187,188.531601 625.688416,190.386108 626.804871,191.827606 
	C635.618164,191.827606 643.503174,191.827606 651.388123,191.827606 
	C651.670837,192.276764 651.953613,192.725906 652.236328,193.175064 
	C648.938782,197.805573 645.641846,202.436508 642.343201,207.066223 
	C641.605530,208.101562 640.894409,209.158051 640.113220,210.159729 
	C638.899841,211.715668 637.636963,213.232956 635.922119,215.350723 
	C635.719177,215.134430 636.503296,215.970184 636.953247,216.449768 
	C635.433533,219.009171 634.248779,221.682388 632.466064,223.867813 
	C628.560303,228.655807 630.315308,231.541122 634.885864,234.553482 
	C639.134888,237.353912 642.986877,240.819412 646.706970,244.318176 
	C647.711426,245.262863 647.521606,247.418686 648.035522,248.966934 
	C648.318054,249.818192 648.924438,250.561966 649.858276,252.169052 
	C647.757874,251.723618 646.268127,251.407700 644.419678,251.041702 
	C644.060974,250.991638 644.002625,251.000595 643.851379,250.743622 
	C643.396606,250.284195 643.093140,250.081726 642.789612,249.879257 
z"/>
<path fill="#131212" opacity="1.000000" stroke="none" 
	d="
M667.001404,277.256714 
	C667.783813,275.358765 668.583923,273.765778 669.596497,271.749847 
	C663.197815,266.629181 656.793152,261.503723 650.228821,256.077972 
	C650.926758,254.000198 651.784424,252.222748 653.120972,249.452606 
	C660.906189,255.804611 668.470825,261.976654 676.596924,268.606812 
	C673.511230,272.133789 670.818298,275.211761 668.062744,278.644897 
	C668.000183,279.000000 667.986755,279.017029 667.986755,279.017029 
	C667.664185,278.531921 667.341675,278.046814 667.001404,277.256714 
z"/>
<path fill="#19130E" opacity="1.000000" stroke="none" 
	d="
M632.839172,365.890259 
	C627.427551,362.144928 622.063660,358.042755 616.420227,353.726807 
	C623.943970,342.528351 631.126038,331.838409 638.641846,321.065186 
	C640.277588,326.490570 635.605286,329.454926 633.390198,333.321320 
	C629.553589,340.018524 624.895630,346.245209 619.978882,353.567566 
	C621.960938,354.669525 623.953796,356.568359 626.155212,356.852661 
	C632.673889,357.694580 632.903198,357.672241 632.578796,364.090271 
	C632.554810,364.564880 632.778442,365.052063 632.839172,365.890259 
z"/>
<path fill="#131212" opacity="1.000000" stroke="none" 
	d="
M581.984863,495.028595 
	C582.677246,494.761017 583.857849,494.115631 583.987610,494.283325 
	C585.568909,496.327118 586.995728,498.490356 588.793091,501.102936 
	C582.792114,504.848419 576.973022,508.432404 571.208923,512.102600 
	C569.037415,513.485229 567.091431,515.244446 564.852295,516.489807 
	C563.583618,517.195435 561.929138,517.207275 560.376343,516.946411 
	C562.495300,513.856995 564.686340,511.352692 566.877319,508.848450 
	C566.877319,508.848419 567.009155,508.959778 567.311096,508.957245 
	C568.725525,507.942596 569.838074,506.930450 570.950562,505.918335 
	C570.950562,505.918335 570.992859,505.992981 571.327148,505.987183 
	C572.391785,505.259735 573.122009,504.538055 573.852295,503.816406 
	C573.852295,503.816406 574.011780,503.932251 574.309448,503.938721 
	C576.402588,503.292908 578.198059,502.640625 580.105347,502.238403 
	C580.684021,502.733521 581.150879,502.978638 581.617798,503.223724 
	C581.730835,502.803314 581.843933,502.382904 582.001831,501.601959 
	C582.026001,499.170471 582.005432,497.099548 581.984863,495.028595 
z"/>
<path fill="#131212" opacity="1.000000" stroke="none" 
	d="
M621.380371,186.989716 
	C621.016357,186.516235 621.027588,186.035950 621.357910,185.049927 
	C621.833435,184.256882 621.912354,183.949646 621.913818,183.622467 
	C625.135986,172.283875 628.358093,160.945282 631.799011,149.304596 
	C632.752197,150.229782 634.343445,151.682693 634.088867,152.649567 
	C631.459778,162.634399 628.649109,172.576996 625.579346,182.434921 
	C625.036255,184.178696 623.066467,185.478195 621.380371,186.989716 
z"/>
<path fill="#2B1803" opacity="1.000000" stroke="none" 
	d="
M581.720032,494.836609 
	C582.005432,497.099548 582.026001,499.170471 581.675232,501.607208 
	C580.867065,501.978088 580.430298,501.983215 579.993530,501.988342 
	C578.198059,502.640625 576.402588,503.292908 574.221802,503.893921 
	C576.027283,501.940460 578.218140,500.038239 580.662720,497.915710 
	C579.018250,495.471313 577.488281,493.197205 576.225586,490.540710 
	C577.657776,490.450043 578.822815,490.741791 579.987793,491.033508 
	C580.476929,492.237183 580.966064,493.440887 581.720032,494.836609 
z"/>
<path fill="#19130E" opacity="1.000000" stroke="none" 
	d="
M639.350098,320.951355 
	C642.083679,315.712860 645.186646,310.449219 648.593994,305.035736 
	C648.730286,306.409546 648.562134,307.933167 648.199768,309.970093 
	C648.005615,310.650696 648.005737,310.818024 648.005859,310.985382 
	C648.005859,310.985382 648.000000,310.999237 647.638550,311.040161 
	C646.519653,312.387299 645.762268,313.693542 645.004883,314.999786 
	C644.690613,318.266174 643.169189,320.456024 639.350098,320.951355 
z"/>
<path fill="#2B1803" opacity="1.000000" stroke="none" 
	d="
M566.541809,508.923798 
	C564.686340,511.352692 562.495300,513.856995 560.152466,516.667969 
	C559.441895,517.148010 558.883118,517.321350 557.782410,517.781982 
	C555.785461,518.333984 554.330566,518.598694 552.875610,518.863464 
	C557.319153,515.575378 561.762756,512.287231 566.541809,508.923798 
z"/>
<path fill="#131212" opacity="1.000000" stroke="none" 
	d="
M566.702087,477.129883 
	C566.385742,477.042694 566.165527,476.847198 566.018677,475.934448 
	C565.996338,474.552246 565.996765,473.779083 565.997192,473.005890 
	C570.999023,474.261780 571.776001,478.804504 572.867615,482.820221 
	C571.773560,483.060577 571.292725,483.106049 570.811951,483.151520 
	C570.811951,483.151520 570.966797,483.017487 570.953125,482.717407 
	C570.215393,481.674225 569.491394,480.931152 568.767395,480.188080 
	C568.767395,480.188080 568.878479,479.985718 568.898438,479.707336 
	C568.179565,478.662628 567.440857,477.896240 566.702087,477.129883 
z"/>
<path fill="#131212" opacity="1.000000" stroke="none" 
	d="
M655.958679,293.873932 
	C655.993713,293.697784 656.028748,293.521637 656.264526,293.165894 
	C657.026306,293.878418 658.277832,295.123138 658.032532,295.603546 
	C656.769775,298.076233 655.122742,300.352631 653.303955,302.453674 
	C652.963379,301.407562 652.928772,300.605316 652.894165,299.803070 
	C653.498230,298.345703 654.102295,296.888336 655.138550,295.051819 
	C655.775391,294.442932 655.904663,294.176697 655.958679,293.873932 
z"/>
<path fill="#131212" opacity="1.000000" stroke="none" 
	d="
M552.896851,518.871582 
	C554.330566,518.598694 555.785461,518.333984 557.612427,518.027100 
	C558.693909,521.278503 558.550964,521.417297 553.164795,521.832275 
	C552.940369,520.414612 552.912842,519.637573 552.885315,518.860474 
	C552.885315,518.860474 552.918091,518.879700 552.896851,518.871582 
z"/>
<path fill="#131212" opacity="1.000000" stroke="none" 
	d="
M579.990112,490.659058 
	C578.822815,490.741791 577.657776,490.450043 576.132629,490.206665 
	C575.772461,490.255066 575.791382,490.228638 575.854858,489.823730 
	C575.941772,488.616608 575.965271,487.814423 575.988770,487.012238 
	C578.758728,485.923859 579.046204,486.158844 579.990112,490.659058 
z"/>
<path fill="#131212" opacity="1.000000" stroke="none" 
	d="
M546.007324,524.992676 
	C547.388611,524.696594 548.769897,524.400513 550.151184,524.104431 
	C550.409485,524.567993 550.667847,525.031494 550.926147,525.495056 
	C549.489197,526.084473 548.052307,526.673889 546.312561,527.138428 
	C546.009766,527.013672 545.999146,526.999268 545.993347,526.664856 
	C545.986938,525.891296 545.986328,525.452087 545.991333,525.007935 
	C545.996887,525.002991 546.007324,524.992676 546.007324,524.992676 
z"/>
<path fill="#2B1803" opacity="1.000000" stroke="none" 
	d="
M565.998596,473.002930 
	C565.996765,473.779083 565.996338,474.552246 565.974121,475.711456 
	C564.640686,474.331085 563.328918,472.564697 562.297485,470.427612 
	C563.049805,470.041168 563.521790,470.025452 563.993774,470.009766 
	C564.258118,470.498444 564.522400,470.987091 564.997498,471.955811 
	C565.407043,472.712860 565.669434,472.901428 565.995361,473.001556 
	C565.995361,473.001556 566.000000,473.000000 565.998596,473.002930 
z"/>
<path fill="#131212" opacity="1.000000" stroke="none" 
	d="
M662.149170,286.182800 
	C662.411987,284.671997 662.870300,283.418945 663.597900,281.960327 
	C664.719360,283.758423 666.476990,286.056274 662.149170,286.182800 
z"/>
<path fill="#2B1803" opacity="1.000000" stroke="none" 
	d="
M575.688477,486.883240 
	C575.965271,487.814423 575.941772,488.616608 575.844238,489.815369 
	C574.852356,489.043701 573.934509,487.875427 572.971191,486.388000 
	C573.746521,486.297302 574.567322,486.525787 575.688477,486.883240 
z"/>
<path fill="#131212" opacity="1.000000" stroke="none" 
	d="
M93.482101,438.070618 
	C94.283005,438.735046 94.742996,439.471771 95.276680,440.527557 
	C93.470024,440.880127 91.030357,441.370697 93.482101,438.070618 
z"/>
<path fill="#131212" opacity="1.000000" stroke="none" 
	d="
M645.300964,314.857086 
	C645.762268,313.693542 646.519653,312.387299 647.632202,311.044189 
	C647.190613,312.243011 646.393799,313.478699 645.300964,314.857086 
z"/>
<path fill="#19130E" opacity="1.000000" stroke="none" 
	d="
M563.964233,469.668701 
	C563.521790,470.025452 563.049805,470.041168 562.226074,470.100037 
	C561.874329,470.143158 561.901245,470.098541 561.852051,469.872650 
	C561.557129,469.425598 561.311523,469.204437 561.065857,468.983276 
	C561.065857,468.983276 560.999146,468.980408 561.015747,468.630859 
	C561.027222,467.852692 561.022156,467.424133 561.017090,466.995544 
	C561.989685,467.772888 562.962219,468.550262 563.964233,469.668701 
z"/>
<path fill="#19130E" opacity="1.000000" stroke="none" 
	d="
M652.547485,299.881775 
	C652.928772,300.605316 652.963379,301.407562 653.000732,302.612183 
	C652.436707,303.043488 651.870056,303.072418 651.066772,303.006409 
	C651.287109,301.927826 651.743958,300.944183 652.547485,299.881775 
z"/>
<path fill="#2B1803" opacity="1.000000" stroke="none" 
	d="
M552.583496,518.931152 
	C552.912842,519.637573 552.940369,520.414612 552.959534,521.579468 
	C552.137146,521.716431 551.323181,521.465576 550.214294,521.077393 
	C550.706848,520.293945 551.494263,519.647888 552.583496,518.931152 
z"/>
<path fill="#2B1803" opacity="1.000000" stroke="none" 
	d="
M561.009888,466.663544 
	C561.022156,467.424133 561.027222,467.852692 561.033325,468.602478 
	C560.315796,467.895599 559.597107,466.867523 558.824341,465.527496 
	C559.262024,465.151459 559.753906,465.087341 560.617371,465.013275 
	C560.993591,465.446045 560.998169,465.888794 561.009888,466.663544 
z"/>
<path fill="#2B1803" opacity="1.000000" stroke="none" 
	d="
M570.870117,483.458374 
	C571.292725,483.106049 571.773560,483.060577 572.615723,483.012573 
	C572.985962,483.775177 572.994751,484.540283 572.966736,485.686584 
	C572.262695,485.300232 571.595520,484.532715 570.870117,483.458374 
z"/>
<path fill="#131212" opacity="1.000000" stroke="none" 
	d="
M665.005615,280.002441 
	C665.520386,280.308350 666.028015,280.612732 666.535706,280.917145 
	C666.351807,281.127106 666.167969,281.337067 665.984070,281.547028 
	C665.675354,281.227356 665.366699,280.907684 665.031982,280.302460 
	C665.005859,280.016907 664.998474,280.000977 665.005615,280.002441 
z"/>
<path fill="#131212" opacity="1.000000" stroke="none" 
	d="
M661.641602,289.736908 
	C661.626831,289.989899 661.492188,290.127686 661.357544,290.265472 
	C661.412231,290.050873 661.466980,289.836304 661.641602,289.736908 
z"/>
<path fill="#19130E" opacity="1.000000" stroke="none" 
	d="
M650.443176,379.536133 
	C650.405762,379.475006 650.480591,379.597290 650.443176,379.536133 
z"/>
<path fill="#131212" opacity="1.000000" stroke="none" 
	d="
M651.549011,247.469589 
	C651.582397,247.525818 651.515625,247.413361 651.549011,247.469589 
z"/>
<path fill="#131212" opacity="1.000000" stroke="none" 
	d="
M668.008728,278.993164 
	C668.136902,279.136719 668.256531,279.287109 668.376221,279.437500 
	C668.285706,279.390106 668.195129,279.342682 668.045654,279.156128 
	C667.986755,279.017029 668.000183,279.000000 668.008728,278.993164 
z"/>
<path fill="#19130E" opacity="1.000000" stroke="none" 
	d="
M649.125488,304.845032 
	C649.061768,304.638214 649.250916,304.348206 649.701843,303.981201 
	C649.768555,304.190033 649.573486,304.475922 649.125488,304.845032 
z"/>
<path fill="#131212" opacity="1.000000" stroke="none" 
	d="
M648.173096,310.900116 
	C648.005737,310.818024 648.005615,310.650696 648.015381,310.232422 
	C648.193176,310.152283 648.377930,310.311157 648.515869,310.503601 
	C648.545166,310.544464 648.403381,310.707886 648.173096,310.900116 
z"/>
<path fill="#19130E" opacity="1.000000" stroke="none" 
	d="
M637.549194,362.469421 
	C637.582947,362.525879 637.515503,362.412994 637.549194,362.469421 
z"/>
<path fill="#19130E" opacity="1.000000" stroke="none" 
	d="
M648.533569,380.554382 
	C648.476318,380.589264 648.590881,380.519501 648.533569,380.554382 
z"/>
<path fill="#19130E" opacity="1.000000" stroke="none" 
	d="
M647.549683,382.463043 
	C647.584534,382.521240 647.514771,382.404846 647.549683,382.463043 
z"/>
<path fill="#19130E" opacity="1.000000" stroke="none" 
	d="
M643.001343,387.001831 
	C642.906311,387.038879 642.809998,387.074097 642.854492,387.053162 
	C642.995300,386.997040 643.000000,387.000000 643.001343,387.001831 
z"/>
<path fill="#19130E" opacity="1.000000" stroke="none" 
	d="
M603.003662,429.997131 
	C603.126831,430.138550 603.246399,430.282806 603.365906,430.427063 
	C603.279175,430.378784 603.192383,430.330536 603.050049,430.144806 
	C602.994446,430.007324 603.000000,430.000000 603.003662,429.997131 
z"/>
<path fill="#131212" opacity="1.000000" stroke="none" 
	d="
M565.894104,472.776947 
	C565.669434,472.901428 565.407043,472.712860 565.105225,472.212402 
	C565.330872,472.085327 565.594421,472.273102 565.894104,472.776947 
z"/>
<path fill="#131212" opacity="1.000000" stroke="none" 
	d="
M544.799805,524.717712 
	C545.019409,524.472961 545.239075,524.228271 545.709839,523.945007 
	C545.972168,524.087463 545.983398,524.268372 546.000977,524.721008 
	C546.007324,524.992676 545.996887,525.002991 545.690918,524.950012 
	C545.189941,524.837280 544.994873,524.777466 544.799805,524.717712 
z"/>
<path fill="#EBAE15" opacity="1.000000" stroke="none" 
	d="
M326.390137,442.105621 
	C312.041443,437.619934 298.830994,431.282623 286.611206,422.135040 
	C277.277618,415.148071 266.187225,410.496124 255.825211,404.903931 
	C253.491852,403.644623 251.025284,402.393677 248.467911,401.834198 
	C241.717392,400.357391 238.876373,396.185272 239.028473,389.542084 
	C239.047363,388.716797 238.795685,387.888336 238.774872,387.058716 
	C238.435684,373.540863 232.948257,363.156799 223.241425,353.213867 
	C205.990051,335.542877 194.976852,313.424072 185.240234,290.827667 
	C184.473938,289.049255 183.641632,287.299286 182.389572,285.654480 
	C178.435959,312.747864 185.186646,338.302948 193.665009,364.280304 
	C180.704727,368.729462 167.907043,373.122772 154.724106,377.648376 
	C149.850250,367.196259 145.182922,357.187042 139.980972,346.031342 
	C146.949905,345.693512 152.846603,345.191895 158.742691,345.199158 
	C162.553497,345.203827 163.791107,344.164764 162.824326,340.236115 
	C156.431442,314.258209 157.592987,288.014801 160.511139,261.759491 
	C161.374496,253.991684 162.791595,246.283478 164.038284,238.561432 
	C164.398911,236.327728 165.049332,234.140839 165.853073,230.711563 
	C169.091064,235.582596 171.623444,239.395035 174.158676,243.205582 
	C195.504379,275.288818 217.995438,306.539124 245.853516,333.345978 
	C253.118652,340.336975 257.387756,347.345184 257.072876,357.282196 
	C257.010925,359.238464 257.719086,361.213593 258.020630,363.187897 
	C259.157745,370.632782 262.468201,375.498596 270.305908,378.281494 
	C285.960846,383.840088 301.152985,390.702179 317.663483,397.489349 
	C317.663483,364.174805 317.663483,331.520264 317.663483,298.865723 
	C318.251862,298.732788 318.840240,298.599854 319.428619,298.466949 
	C332.252472,322.309692 345.076355,346.152466 358.079773,370.329041 
	C375.490692,353.475769 396.663971,343.171356 417.256470,330.949768 
	C414.761932,326.765930 412.225342,322.755310 409.937988,318.607269 
	C407.609985,314.385620 405.262787,310.139557 403.403687,305.703156 
	C401.024750,300.026398 401.791351,299.064117 407.650696,297.388275 
	C427.644836,291.669708 447.614929,285.866730 467.580170,280.047913 
	C469.740570,279.418274 471.809814,278.475952 473.431458,277.863647 
	C466.236481,266.665833 458.494812,256.173828 452.470276,244.774338 
	C447.147644,234.702988 443.585815,223.676987 439.598511,212.941757 
	C438.661591,210.419189 439.141785,207.370270 439.576447,204.503525 
	C449.185913,222.710648 461.911713,238.454819 473.881348,254.695602 
	C482.378235,266.224396 491.008301,277.660919 499.846527,288.928711 
	C502.470856,292.274414 502.220306,294.691589 498.801514,296.543396 
	C492.092499,300.177246 485.475769,304.250214 478.336029,306.765167 
	C462.671295,312.283051 446.704376,316.943054 430.627380,322.027100 
	C435.399078,330.037994 440.390228,338.417297 445.426819,346.872894 
	C415.413513,356.605103 392.924103,377.294769 368.506653,394.891174 
	C361.493896,399.944885 354.636047,405.213531 347.120605,410.821320 
	C343.722351,403.811218 340.508362,397.132599 337.236847,390.482330 
	C336.716827,389.425262 335.937897,388.495636 335.278656,387.507080 
	C335.176483,387.630188 335.053253,387.741760 334.977905,387.879486 
	C334.899078,388.023560 334.866302,388.192841 334.403748,388.548889 
	C333.661804,389.657104 333.041962,390.566833 333.039734,391.478027 
	C332.997375,408.666534 333.028137,425.855225 333.043579,443.043854 
	C333.043610,443.043854 333.000000,443.000000 332.606384,442.982910 
	C330.271881,442.679077 328.330994,442.392334 326.390137,442.105621 
z"/>
<path fill="#ECAE15" opacity="1.000000" stroke="none" 
	d="
M605.918701,730.201416 
	C604.767517,726.721985 603.703308,723.632874 602.639160,720.543762 
	C602.931091,720.215576 603.223022,719.887390 603.514893,719.559204 
	C607.730774,722.578979 612.324646,725.191589 616.094543,728.691650 
	C629.643677,741.271057 639.759216,756.542603 647.661072,773.039246 
	C657.351379,793.269531 665.916626,814.038757 674.948303,834.583740 
	C675.201294,835.159180 675.227234,835.834290 675.379272,836.559326 
	C654.725830,842.691467 637.732971,855.453918 618.316650,867.387146 
	C618.316650,857.584412 618.537415,849.028625 618.277466,840.487427 
	C617.284485,807.862488 615.444275,775.305786 609.066406,743.190063 
	C608.225403,738.955017 607.034546,734.789490 605.918701,730.201416 
z"/>
<path fill="#EDAE14" opacity="1.000000" stroke="none" 
	d="
M463.030975,854.822754 
	C462.557098,854.800110 462.083221,854.777466 461.178406,854.291016 
	C456.016235,852.877808 451.317810,851.673157 446.543396,851.059937 
	C442.760010,850.573914 438.883545,850.813110 435.048401,850.730286 
	C434.585938,850.758911 434.123505,850.787476 433.199127,850.346252 
	C431.017242,849.589050 429.299561,849.070740 427.576843,849.053406 
	C419.071869,848.967590 410.565613,849.014343 401.936005,849.014343 
	C401.936005,848.449158 401.936005,847.183105 401.936005,845.917053 
	C401.936005,845.917053 401.993378,845.991577 402.303864,845.945923 
	C404.938385,841.491394 407.262451,837.082520 409.586487,832.673645 
	C409.708801,832.789856 409.831116,832.906067 410.141388,832.845337 
	C411.203888,830.754700 412.078430,828.841064 412.953003,826.927429 
	C412.953003,826.927429 412.997955,826.989075 413.322205,826.943481 
	C414.413086,825.237671 415.179718,823.577454 415.946289,821.917175 
	C415.946289,821.917175 415.991302,821.987793 416.321533,821.958984 
	C418.076691,819.253479 419.501617,816.576843 420.926575,813.900208 
	C420.926605,813.900208 420.978180,813.973755 421.242554,813.856689 
	C421.828033,813.025452 422.149139,812.311218 422.470276,811.597046 
	C422.470276,811.597046 422.843201,811.724121 423.029785,811.648315 
	C423.992004,809.933289 424.767639,808.294067 425.543274,806.654907 
	C425.543304,806.654907 425.728027,807.010559 425.989563,806.813110 
	C426.705170,805.618103 427.159241,804.620544 427.613342,803.622986 
	C427.613342,803.622986 427.717163,803.897949 427.989197,803.756897 
	C428.836975,802.400085 429.412720,801.184326 429.988434,799.968567 
	C429.988434,799.968567 430.005737,799.996338 430.341858,799.971802 
	C432.770752,796.607300 434.863495,793.267273 436.956238,789.927246 
	C436.956238,789.927246 436.996002,789.990906 437.327209,789.962524 
	C438.715057,788.226074 439.771698,786.518005 440.828339,784.809998 
	C440.828339,784.809998 440.885437,784.902771 441.165405,784.815918 
	C441.949097,783.795044 442.452789,782.861023 442.956482,781.926941 
	C442.956482,781.926941 442.995239,781.991089 443.307190,781.953979 
	C444.411560,780.602783 445.204010,779.288818 445.996460,777.974792 
	C445.996460,777.974792 446.005402,778.001831 446.233856,777.897766 
	C446.621033,777.489990 446.779724,777.186279 446.938446,776.882629 
	C446.938477,776.882629 446.951691,776.975403 447.271759,776.957886 
	C450.034088,773.922729 452.476349,770.905029 454.918610,767.887329 
	C454.918610,767.887329 454.982178,767.982544 455.272705,767.954346 
	C455.839661,767.447510 456.116089,766.968872 456.392517,766.490234 
	C456.392517,766.490234 456.499420,766.518127 456.823730,766.543457 
	C457.405426,766.007935 457.662781,765.447083 457.920105,764.886230 
	C457.920135,764.886230 457.981476,764.979858 458.271240,764.955994 
	C458.877289,764.461975 459.193542,763.991760 459.509827,763.521545 
	C459.509796,763.521545 459.605225,763.510742 459.958649,763.615845 
	C460.748322,763.024719 461.184601,762.328613 461.620880,761.632446 
	C461.620880,761.632446 461.814880,761.932312 462.146057,761.904053 
	C463.654755,763.959351 465.495819,765.934265 465.858673,768.151123 
	C466.443726,771.725220 465.821747,775.477478 466.115692,779.121826 
	C467.672638,798.426392 469.260681,817.729797 471.068695,837.011902 
	C471.479431,841.392456 472.804596,845.687256 473.708862,850.021484 
	C473.800873,850.458984 473.892853,850.896545 473.656067,851.905701 
	C471.753510,852.993042 470.207367,853.632568 468.598633,853.991699 
	C466.771973,854.399597 464.889282,854.556641 463.030975,854.822754 
z"/>
<path fill="#EBAE15" opacity="1.000000" stroke="none" 
	d="
M298.004333,864.992126 
	C280.263824,855.612793 262.523315,846.233459 244.269409,836.582642 
	C262.208344,808.846375 282.206879,783.036377 306.085632,759.507935 
	C305.568848,764.279724 305.061218,769.052490 304.533691,773.823059 
	C301.955444,797.137756 299.102478,820.427246 296.960052,843.781860 
	C296.345459,850.481140 297.778748,857.368164 298.134033,864.587158 
	C297.995026,865.005127 298.004333,864.992126 298.004333,864.992126 
z"/>
<path fill="#EAAE16" opacity="1.000000" stroke="none" 
	d="
M426.516541,664.549927 
	C419.225220,677.262878 412.204926,689.717773 404.965424,702.043945 
	C404.202209,703.343384 401.946289,704.877991 400.725342,704.628357 
	C384.779572,701.368958 368.895569,697.807373 352.894928,694.299561 
	C363.486084,678.065125 424.265015,643.926697 442.493225,643.938171 
	C437.184753,650.777649 431.954590,657.516174 426.516541,664.549927 
z"/>
<path fill="#E8AD19" opacity="1.000000" stroke="none" 
	d="
M540.654907,605.649780 
	C544.343811,603.768860 547.717834,602.078674 550.540588,600.664551 
	C554.203369,613.715759 557.715454,626.229858 561.447388,639.527344 
	C547.752258,633.720276 533.619690,627.727722 519.487183,621.735168 
	C519.338928,621.047729 519.190735,620.360291 519.042542,619.672852 
	C526.141663,615.062134 533.240784,610.451355 540.654907,605.649780 
z"/>
<path fill="#D6A634" opacity="1.000000" stroke="none" 
	d="
M473.759827,849.596680 
	C472.804596,845.687256 471.479431,841.392456 471.068695,837.011902 
	C469.260681,817.729797 467.672638,798.426392 466.115692,779.121826 
	C465.821747,775.477478 466.443726,771.725220 465.858673,768.151123 
	C465.495819,765.934265 463.654755,763.959351 462.067871,761.743530 
	C462.731934,760.675415 463.805359,759.739624 465.761749,758.033997 
	C468.509766,789.149475 471.160278,819.160706 473.759827,849.596680 
z"/>
<path fill="#EDB632" opacity="1.000000" stroke="none" 
	d="
M333.425568,442.887878 
	C333.028137,425.855225 332.997375,408.666534 333.039734,391.478027 
	C333.041962,390.566833 333.661804,389.657104 334.280212,388.869751 
	C334.618927,405.806488 334.688812,422.620178 334.684235,439.433868 
	C334.683929,440.533295 334.113037,441.632568 333.425568,442.887878 
z"/>
<path fill="#D6A634" opacity="1.000000" stroke="none" 
	d="
M401.653259,846.111938 
	C401.936005,847.183105 401.936005,848.449158 401.936005,849.014343 
	C410.565613,849.014343 419.071869,848.967590 427.576843,849.053406 
	C429.299561,849.070740 431.017242,849.589050 432.868042,850.235657 
	C421.749756,850.869507 410.500580,851.144165 398.621857,851.434143 
	C399.465424,849.860535 400.417969,848.083679 401.653259,846.111938 
z"/>
<path fill="#D6A634" opacity="1.000000" stroke="none" 
	d="
M435.452301,850.847412 
	C438.883545,850.813110 442.760010,850.573914 446.543396,851.059937 
	C451.317810,851.673157 456.016235,852.877808 460.848328,854.152588 
	C452.584869,853.306824 444.220551,852.135742 435.452301,850.847412 
z"/>
<path fill="#D6A634" opacity="1.000000" stroke="none" 
	d="
M409.315247,832.853699 
	C407.262451,837.082520 404.938385,841.491394 402.263153,845.922363 
	C404.289307,841.640869 406.666687,837.337280 409.315247,832.853699 
z"/>
<path fill="#D6A634" opacity="1.000000" stroke="none" 
	d="
M463.397400,854.966309 
	C464.889282,854.556641 466.771973,854.399597 468.598633,853.991699 
	C470.207367,853.632568 471.753510,852.993042 473.624451,852.242188 
	C474.096802,853.259094 474.272003,854.511169 474.574432,856.672119 
	C470.548309,856.090332 467.156067,855.600098 463.397400,854.966309 
z"/>
<path fill="#D6A634" opacity="1.000000" stroke="none" 
	d="
M454.607666,768.014648 
	C452.476349,770.905029 450.034088,773.922729 447.235291,776.928467 
	C449.351410,773.991638 451.824066,771.066833 454.607666,768.014648 
z"/>
<path fill="#D6A634" opacity="1.000000" stroke="none" 
	d="
M436.667236,790.098206 
	C434.863495,793.267273 432.770752,796.607300 430.325745,799.969849 
	C432.108429,796.751282 434.243317,793.510254 436.667236,790.098206 
z"/>
<path fill="#D6A634" opacity="1.000000" stroke="none" 
	d="
M420.650360,814.091431 
	C419.501617,816.576843 418.076691,819.253479 416.283234,821.942078 
	C417.401215,819.396912 418.887695,816.839844 420.650360,814.091431 
z"/>
<path fill="#D6A634" opacity="1.000000" stroke="none" 
	d="
M440.528320,784.946472 
	C439.771698,786.518005 438.715057,788.226074 437.292419,789.948486 
	C438.027039,788.336182 439.127686,786.709534 440.528320,784.946472 
z"/>
<path fill="#D6A634" opacity="1.000000" stroke="none" 
	d="
M412.670776,827.113647 
	C412.078430,828.841064 411.203888,830.754700 409.954041,832.673462 
	C410.515320,830.885681 411.451935,829.092834 412.670776,827.113647 
z"/>
<path fill="#D6A634" opacity="1.000000" stroke="none" 
	d="
M415.666290,822.093567 
	C415.179718,823.577454 414.413086,825.237671 413.286743,826.929504 
	C413.746735,825.397400 414.566498,823.833679 415.666290,822.093567 
z"/>
<path fill="#D6A634" opacity="1.000000" stroke="none" 
	d="
M425.279175,806.836914 
	C424.767639,808.294067 423.992004,809.933289 422.853210,811.560913 
	C423.331757,810.039185 424.173401,808.529053 425.279175,806.836914 
z"/>
<path fill="#D6A634" opacity="1.000000" stroke="none" 
	d="
M445.713135,778.127441 
	C445.204010,779.288818 444.411560,780.602783 443.272461,781.939941 
	C443.760437,780.735474 444.595123,779.507751 445.713135,778.127441 
z"/>
<path fill="#EDB632" opacity="1.000000" stroke="none" 
	d="
M326.651276,442.395691 
	C328.330994,442.392334 330.271881,442.679077 332.627197,443.004944 
	C330.998566,442.924622 328.955505,442.805176 326.651276,442.395691 
z"/>
<path fill="#090909" opacity="1.000000" stroke="none" 
	d="
M544.815369,524.729919 
	C544.994873,524.777466 545.189941,524.837280 545.685364,524.954956 
	C545.986328,525.452087 545.986938,525.891296 545.988220,526.659668 
	C545.046265,526.954468 544.103699,526.919983 542.689575,526.797668 
	C542.618835,526.250793 543.019592,525.791748 543.857910,525.400635 
	C544.463074,525.229004 544.630737,524.989380 544.798401,524.749756 
	C544.798401,524.749756 544.830933,524.742126 544.815369,524.729919 
z"/>
<path fill="#D6A634" opacity="1.000000" stroke="none" 
	d="
M429.715698,800.143799 
	C429.412720,801.184326 428.836975,802.400085 427.909729,803.633301 
	C428.186432,802.540161 428.814697,801.429565 429.715698,800.143799 
z"/>
<path fill="#D6A634" opacity="1.000000" stroke="none" 
	d="
M442.674652,782.071655 
	C442.452789,782.861023 441.949097,783.795044 441.111633,784.807190 
	C441.316223,783.995605 441.854523,783.106018 442.674652,782.071655 
z"/>
<path fill="#D6A634" opacity="1.000000" stroke="none" 
	d="
M461.348053,761.713867 
	C461.184601,762.328613 460.748322,763.024719 459.953613,763.568115 
	C460.088501,762.875305 460.581879,762.335327 461.348053,761.713867 
z"/>
<path fill="#D6A634" opacity="1.000000" stroke="none" 
	d="
M427.339081,803.777710 
	C427.159241,804.620544 426.705170,805.618103 425.905334,806.634399 
	C426.061371,805.746155 426.563110,804.839294 427.339081,803.777710 
z"/>
<path fill="#D6A634" opacity="1.000000" stroke="none" 
	d="
M422.219971,811.748779 
	C422.149139,812.311218 421.828033,813.025452 421.198914,813.846069 
	C421.250519,813.268494 421.610107,812.584534 422.219971,811.748779 
z"/>
<path fill="#D6A634" opacity="1.000000" stroke="none" 
	d="
M459.235046,763.588745 
	C459.193542,763.991760 458.877289,764.461975 458.223907,764.926147 
	C458.244598,764.498718 458.602448,764.077332 459.235046,763.588745 
z"/>
<path fill="#D6A634" opacity="1.000000" stroke="none" 
	d="
M457.652222,764.974854 
	C457.662781,765.447083 457.405426,766.007935 456.816162,766.488770 
	C456.784302,765.960266 457.084320,765.511902 457.652222,764.974854 
z"/>
<path fill="#D6A634" opacity="1.000000" stroke="none" 
	d="
M456.129913,766.566284 
	C456.116089,766.968872 455.839661,767.447510 455.225037,767.922729 
	C455.213654,767.493652 455.540466,767.067993 456.129913,766.566284 
z"/>
<path fill="#EBAE15" opacity="1.000000" stroke="none" 
	d="
M297.987885,865.012207 
	C298.128357,865.143188 298.275970,865.267151 298.423584,865.391174 
	C298.328613,865.352783 298.233612,865.314392 298.071472,865.134033 
	C298.004333,864.992126 297.995026,865.005127 297.987885,865.012207 
z"/>
<path fill="#D6A634" opacity="1.000000" stroke="none" 
	d="
M446.683838,776.971680 
	C446.779724,777.186279 446.621033,777.489990 446.219604,777.898071 
	C446.127655,777.688538 446.278442,777.374634 446.683838,776.971680 
z"/>
<path fill="#090909" opacity="1.000000" stroke="none" 
	d="
M348.998901,39.000755 
	C349.119293,39.142849 349.240753,39.284180 349.362244,39.425514 
	C349.277161,39.375626 349.192108,39.325737 349.054138,39.136955 
	C349.001282,38.998058 349.000000,39.000000 348.998901,39.000755 
z"/>
<path fill="#2B1803" opacity="1.000000" stroke="none" 
	d="
M570.634583,505.988373 
	C569.838074,506.930450 568.725525,507.942596 567.237427,508.912567 
	C568.014099,507.933075 569.166321,506.995728 570.634583,505.988373 
z"/>
<path fill="#2B1803" opacity="1.000000" stroke="none" 
	d="
M559.698547,460.206879 
	C559.606384,461.500763 559.259766,462.966248 558.845581,464.817078 
	C555.558594,463.119263 558.502502,461.887085 559.698547,460.206879 
z"/>
<path fill="#2B1803" opacity="1.000000" stroke="none" 
	d="
M573.548767,503.885437 
	C573.122009,504.538055 572.391785,505.259735 571.291626,505.963196 
	C571.696228,505.281525 572.470764,504.618011 573.548767,503.885437 
z"/>
<path fill="#2B1803" opacity="1.000000" stroke="none" 
	d="
M568.832520,480.493347 
	C569.491394,480.931152 570.215393,481.674225 570.888306,482.796692 
	C570.190796,482.383606 569.544250,481.591095 568.832520,480.493347 
z"/>
<path fill="#2B1803" opacity="1.000000" stroke="none" 
	d="
M566.775452,477.441101 
	C567.440857,477.896240 568.179565,478.662628 568.858093,479.815430 
	C568.148193,479.385345 567.498474,478.568817 566.775452,477.441101 
z"/>
<path fill="#090909" opacity="1.000000" stroke="none" 
	d="
M621.729980,183.789246 
	C621.912354,183.949646 621.833435,184.256882 621.523010,184.726044 
	C621.296143,184.566132 621.355164,184.248840 621.729980,183.789246 
z"/>
<path fill="#090909" opacity="1.000000" stroke="none" 
	d="
M642.902283,250.145569 
	C643.093140,250.081726 643.396606,250.284195 643.849487,250.714233 
	C643.670898,250.765167 643.342896,250.588531 642.902283,250.145569 
z"/>
<path fill="#090909" opacity="1.000000" stroke="none" 
	d="
M655.740112,293.973572 
	C655.904663,294.176697 655.775391,294.442932 655.392212,294.807709 
	C655.148010,294.593353 655.250671,294.303497 655.740112,293.973572 
z"/>
<path fill="#131212" opacity="1.000000" stroke="none" 
	d="
M544.569458,524.800659 
	C544.630737,524.989380 544.463074,525.229004 544.164429,525.337463 
	C544.033386,525.206299 544.340454,524.851562 544.569458,524.800659 
z"/>
<path fill="#2B1803" opacity="1.000000" stroke="none" 
	d="
M561.103516,469.239136 
	C561.311523,469.204437 561.557129,469.425598 561.855286,469.894897 
	C561.652222,469.927032 561.396729,469.710999 561.103516,469.239136 
z"/>
<path fill="#090909" opacity="1.000000" stroke="none" 
	d="
M632.945801,397.861145 
	C632.877930,397.858032 632.755920,397.716064 632.633850,397.574097 
	C632.719788,397.623505 632.805664,397.672882 632.945801,397.861145 
z"/>
<path fill="#090909" opacity="1.000000" stroke="none" 
	d="
M580.105347,502.238373 
	C580.430298,501.983215 580.867065,501.978088 581.630432,501.967743 
	C581.843933,502.382904 581.730835,502.803314 581.617798,503.223724 
	C581.150879,502.978638 580.684021,502.733521 580.105347,502.238373 
z"/>
</svg>